<?xml version="1.0" encoding="UTF-8" standalone="no"?>
<!-- Created with Inkscape (http://www.inkscape.org/) -->

<svg
   version="1.1"
   id="svg1"
   width="690.66669"
   height="328"
   viewBox="0 0 690.66669 328"
   xmlns="http://www.w3.org/2000/svg"
   xmlns:svg="http://www.w3.org/2000/svg">
  <defs
     id="defs1" />
  <g
     id="g1">
    <path
       id="path1"
       d="M 6.44922,1.67969 H 2456.7992 V 2453.2397 H 6.44922 Z"
       style="fill:#2f854c;fill-opacity:1;fill-rule:nonzero;stroke:none"
       transform="matrix(0.13333333,0,0,-0.13333333,0,328)" />
    <path
       id="path2"
       d="M 2723.12,1.67969 H 5173.51 V 2453.2397 H 2723.12 Z"
       style="fill:#2f854c;fill-opacity:1;fill-rule:nonzero;stroke:none"
       transform="matrix(0.13333333,0,0,-0.13333333,0,328)" />
    <path
       id="path3"
       d="m 1488.36,511.25 v 522.19 h 289.3 V 482.539 c 0,-39.059 8.94,-66.918 26.83,-83.48 18.01,-16.598 42.03,-24.918 72.03,-24.918 30.12,0 54.34,8.32 72.7,24.918 18.32,16.562 27.62,44.421 27.62,83.48 v 550.901 h 287.93 V 511.25 c 0,-62.301 -9.38,-115.23 -28.17,-158.91 -18.71,-43.629 -45.08,-79.102 -78.83,-106.559 -33.82,-27.5 -74.76,-47.422 -122.77,-59.761 -48.01,-12.54 -100.86,-18.75 -158.44,-18.75 -56.76,0 -108.98,6.21 -156.56,18.75 -47.54,12.339 -88.48,32.261 -122.7,59.761 -34.25,27.457 -61.01,62.93 -80.15,106.559 -19.22,43.68 -28.79,96.609 -28.79,158.91 z M 977.379,380.391 c 0,-5.782 2.851,-8.711 8.75,-8.711 4.101,0 6.25,2.968 6.25,8.711 7.5,54.879 17.071,114.839 28.791,180.078 11.72,65.23 23.32,128.832 35.08,190.742 11.68,61.84 22.97,118.168 33.75,168.75 10.9,50.777 19.22,88.479 25.12,113.479 h 270.5 V 189.691 h -162.77 v 710.348 c 0,4.18 -3.01,6.25 -8.79,6.25 -3.32,0 -5,-2.07 -5,-6.25 -6.68,-33.16 -13.83,-70.348 -21.29,-111.519 -7.57,-41.098 -16.72,-89.258 -27.61,-144.54 -10.86,-55.269 -23.99,-119.878 -39.38,-193.75 -15.47,-74.019 -33.63,-160.82 -54.49,-260.539 H 897.148 C 876.332,287.73 858.551,372.5 843.949,443.98 c -14.687,71.411 -27.39,134.11 -38.25,188.168 -10.82,53.942 -20.469,102.153 -28.789,144.532 -8.281,42.379 -16.68,83.519 -25.07,123.359 0,4.18 -2.93,6.25 -8.789,6.25 -3.281,0 -4.961,-2.07 -4.961,-6.25 V 189.691 H 589.102 V 1033.44 H 860.82 c 4.18,-18.28 9.262,-41.92 15.039,-71.061 5.782,-29.18 12.34,-61.68 19.371,-97.848 7.149,-36.051 14.379,-74.761 22,-115.781 7.461,-41.25 15,-83.16 22.5,-125.98 7.54,-42.77 14.411,-84.758 20.7,-125.93 6.25,-41.059 11.91,-79.93 16.949,-116.449 z M 180.82,1033.44 h 82.66 V 251.988 H 503.91 V 189.691 H 180.82 Z"
       style="fill:#ffffff;fill-opacity:1;fill-rule:nonzero;stroke:none"
       transform="matrix(0.13333333,0,0,-0.13333333,0,328)" />
    <path
       id="path4"
       d="m 2903.44,1178.01 v 179.18 h 33.4 v -152.62 h 89.06 v -26.56 z"
       style="fill:#ffffff;fill-opacity:1;fill-rule:nonzero;stroke:none"
       transform="matrix(0.13333333,0,0,-0.13333333,0,328)" />
    <path
       id="path5"
       d="m 3147.81,1174.34 c -38.55,0 -74.88,13.86 -74.88,75.31 v 107.54 h 33.52 V 1246.6 c 0,-28.44 13.59,-47.62 41.4,-47.62 27.31,0 40.63,17.93 40.63,47.62 v 110.59 h 33.47 v -107.54 c 0,-57.07 -37.11,-75.31 -74.14,-75.31 z"
       style="fill:#ffffff;fill-opacity:1;fill-rule:nonzero;stroke:none"
       transform="matrix(0.13333333,0,0,-0.13333333,0,328)" />
    <path
       id="path6"
       d="m 3342.66,1331.84 h -19.03 v -128.25 h 19.03 c 38.08,0 58.9,16.88 58.9,65.24 0,41.99 -20.11,63.01 -58.9,63.01 z m 1.52,-153.83 h -54.02 v 179.18 h 54.02 c 63.79,0 92.34,-36.88 92.34,-88.32 0,-58.91 -34.45,-90.86 -92.34,-90.86 z"
       style="fill:#ffffff;fill-opacity:1;fill-rule:nonzero;stroke:none"
       transform="matrix(0.13333333,0,0,-0.13333333,0,328)" />
    <path
       id="path7"
       d="m 3668.36,1178.01 h -35.59 l -34.72,125.7 -34.69,-125.7 h -35.51 l -54.53,179.18 h 37.27 l 36.56,-140.28 34.49,125.67 h 35.43 l 34.3,-125.67 36.29,140.28 h 35 z"
       style="fill:#ffffff;fill-opacity:1;fill-rule:nonzero;stroke:none"
       transform="matrix(0.13333333,0,0,-0.13333333,0,328)" />
    <path
       id="path8"
       d="m 3773.32,1178.01 h 33.4414 v 179.18 H 3773.32 Z"
       style="fill:#ffffff;fill-opacity:1;fill-rule:nonzero;stroke:none"
       transform="matrix(0.13333333,0,0,-0.13333333,0,328)" />
    <path
       id="path9"
       d="m 3956.02,1174.34 c -54.54,0 -87.19,37.46 -87.19,94.76 0,61.99 45.51,91.68 87.19,91.68 29.33,0 48.36,-9.22 60.5,-19.96 l -13.71,-25.08 c -9.72,11.02 -23.08,20.98 -46.79,20.98 -30.12,0 -52.5,-26.92 -52.5,-67.62 0,-41.68 22.38,-70.66 54.02,-70.66 18.28,0 28.87,4.65 33.2,8.67 v 45.62 h -40.15 v 24.57 h 72.38 v -86.05 c -15.51,-9.45 -36.33,-16.91 -66.95,-16.91 z"
       style="fill:#ffffff;fill-opacity:1;fill-rule:nonzero;stroke:none"
       transform="matrix(0.13333333,0,0,-0.13333333,0,328)" />
    <path
       id="path10"
       d="m 4068.98,1247.08 h 70.2305 v 22.3008 H 4068.98 Z"
       style="fill:#ffffff;fill-opacity:1;fill-rule:nonzero;stroke:none"
       transform="matrix(0.13333333,0,0,-0.13333333,0,328)" />
    <path
       id="path11"
       d="m 3065.82,848.711 -6.13,136.211 -45.63,-111.602 h -30.39 l -46.56,111.602 -5.39,-136.211 h -32.7 l 10.55,179.299 h 41.72 l 49.1,-118.791 46.64,118.791 h 41.68 l 10.51,-179.299 z"
       style="fill:#ffffff;fill-opacity:1;fill-rule:nonzero;stroke:none"
       transform="matrix(0.13333333,0,0,-0.13333333,0,328)" />
    <path
       id="path12"
       d="m 3230.98,994.648 -28.05,-78.32 h 56.6 z m 53,-145.937 -15.7,43.59 h -73.55 l -15.94,-43.59 h -35.31 l 71.56,179.299 h 35.04 l 70.97,-179.299 z"
       style="fill:#ffffff;fill-opacity:1;fill-rule:nonzero;stroke:none"
       transform="matrix(0.13333333,0,0,-0.13333333,0,328)" />
    <path
       id="path13"
       d="m 3485.43,848.711 -48.63,72.309 -49.57,-72.309 h -40.2 l 68.99,92.93 -63.6,86.369 h 41.96 l 44.29,-66.561 43.21,66.561 h 40.15 l -63.32,-86.369 68.67,-92.93 z"
       style="fill:#ffffff;fill-opacity:1;fill-rule:nonzero;stroke:none"
       transform="matrix(0.13333333,0,0,-0.13333333,0,328)" />
    <path
       id="path14"
       d="m 3576.56,848.711 h 33.4805 v 179.301 H 3576.56 Z"
       style="fill:#ffffff;fill-opacity:1;fill-rule:nonzero;stroke:none"
       transform="matrix(0.13333333,0,0,-0.13333333,0,328)" />
    <path
       id="path15"
       d="m 3844.22,848.711 -6.25,136.211 -45.51,-111.602 h -30.39 l -46.56,111.602 -5.43,-136.211 h -32.66 l 10.59,179.299 h 41.68 l 49.1,-118.791 46.6,118.791 h 41.72 l 10.51,-179.299 z"
       style="fill:#ffffff;fill-opacity:1;fill-rule:nonzero;stroke:none"
       transform="matrix(0.13333333,0,0,-0.13333333,0,328)" />
    <path
       id="path16"
       d="m 3945.04,848.711 h 33.4023 v 179.301 H 3945.04 Z"
       style="fill:#ffffff;fill-opacity:1;fill-rule:nonzero;stroke:none"
       transform="matrix(0.13333333,0,0,-0.13333333,0,328)" />
    <path
       id="path17"
       d="m 4172.73,848.711 v 26.641 h -88.98 v 152.658 h -33.48 V 848.711 Z"
       style="fill:#ffffff;fill-opacity:1;fill-rule:nonzero;stroke:none"
       transform="matrix(0.13333333,0,0,-0.13333333,0,328)" />
    <path
       id="path18"
       d="m 4229.69,848.711 h 33.3984 v 179.301 H 4229.69 Z"
       style="fill:#ffffff;fill-opacity:1;fill-rule:nonzero;stroke:none"
       transform="matrix(0.13333333,0,0,-0.13333333,0,328)" />
    <path
       id="path19"
       d="m 4400.27,994.648 -28.08,-78.32 h 56.6 z m 52.97,-145.937 -15.7,43.59 h -73.59 l -15.94,-43.59 h -35.24 l 71.49,179.299 h 35 l 71.09,-179.299 z"
       style="fill:#ffffff;fill-opacity:1;fill-rule:nonzero;stroke:none"
       transform="matrix(0.13333333,0,0,-0.13333333,0,328)" />
    <path
       id="path20"
       d="M 4646.99,848.711 4571.88,982.34 V 848.711 h -32.97 v 179.299 h 43.75 l 75.19,-133.67 v 133.67 h 32.85 V 848.711 Z"
       style="fill:#ffffff;fill-opacity:1;fill-rule:nonzero;stroke:none"
       transform="matrix(0.13333333,0,0,-0.13333333,0,328)" />
    <path
       id="path21"
       d="m 4881.41,898.441 c 0,27.071 -16.45,39.918 -36.76,48.629 l -35.51,15.078 c -11.09,4.614 -22.66,10.782 -22.66,23.59 0,10.282 8.99,21.762 28.83,21.762 22.39,0 35,-9.961 45.28,-22.578 l 14.18,22.268 c -12.93,15.39 -35.55,24.37 -59.46,24.37 -28.83,0 -63.08,-16.91 -63.08,-51.482 0,-22.027 14.92,-36.598 34.25,-44.808 l 35.47,-15.071 c 13.91,-5.937 24.46,-12.539 24.46,-26.679 0,-11.489 -10.55,-24.301 -33.17,-24.301 -22.93,0 -37.81,10.23 -50.74,24.801 l -14.1,-22.5 c 8.48,-10 28.79,-26.36 64.3,-26.36 54.02,0.039 68.71,34.84 68.71,53.281 z"
       style="fill:#ffffff;fill-opacity:1;fill-rule:nonzero;stroke:none"
       transform="matrix(0.13333333,0,0,-0.13333333,0,328)" />
    <path
       id="path22"
       d="m 4924.38,917.859 h 70.2305 v 22.3008 H 4924.38 Z"
       style="fill:#ffffff;fill-opacity:1;fill-rule:nonzero;stroke:none"
       transform="matrix(0.13333333,0,0,-0.13333333,0,328)" />
    <path
       id="path23"
       d="m 2975.78,515.898 c -38.63,0 -74.88,13.903 -74.88,75.274 V 698.75 h 33.4 V 588.199 c 0,-28.429 13.63,-47.687 41.48,-47.687 27.19,0 40.63,17.929 40.63,47.687 V 698.75 h 33.39 V 591.172 c 0,-57.07 -36.99,-75.274 -74.02,-75.274 z"
       style="fill:#ffffff;fill-opacity:1;fill-rule:nonzero;stroke:none"
       transform="matrix(0.13333333,0,0,-0.13333333,0,328)" />
    <path
       id="path24"
       d="m 3226.13,519.57 -75.15,133.668 V 519.57 h -32.97 v 179.18 h 43.75 l 75.15,-133.629 V 698.75 h 32.89 V 519.57 Z"
       style="fill:#ffffff;fill-opacity:1;fill-rule:nonzero;stroke:none"
       transform="matrix(0.13333333,0,0,-0.13333333,0,328)" />
    <path
       id="path25"
       d="m 3341.6,519.57 h 33.4805 V 698.75 H 3341.6 Z"
       style="fill:#ffffff;fill-opacity:1;fill-rule:nonzero;stroke:none"
       transform="matrix(0.13333333,0,0,-0.13333333,0,328)" />
    <path
       id="path26"
       d="m 3526.56,519.57 h -35.43 l -71.6,179.18 h 37.85 l 52.27,-145.43 52.23,145.43 h 36.28 z"
       style="fill:#ffffff;fill-opacity:1;fill-rule:nonzero;stroke:none"
       transform="matrix(0.13333333,0,0,-0.13333333,0,328)" />
    <path
       id="path27"
       d="m 3647.73,519.57 v 179.18 h 120.71 v -26.129 h -87.19 v -47.109 h 80.27 v -25.59 h -80.27 v -53.793 h 90.59 V 519.57 Z"
       style="fill:#ffffff;fill-opacity:1;fill-rule:nonzero;stroke:none"
       transform="matrix(0.13333333,0,0,-0.13333333,0,328)" />
    <path
       id="path28"
       d="m 3891.48,673.441 h -28.86 V 621.41 h 28.86 c 25.79,0 32.15,12.539 32.15,27.422 0,13.547 -10.58,24.609 -32.15,24.609 z m 41.41,-153.871 -36.25,53.981 c -9.26,13.828 -17.26,23.328 -25.7,23.328 h -8.32 V 519.57 h -33.4 v 179.18 h 68.71 c 31.64,0 60.19,-16.602 60.19,-49.918 0,-33.75 -30.39,-46.371 -45.82,-48.133 5.2,-3.277 11.84,-11.988 14.18,-15.39 l 46.37,-65.739 z"
       style="fill:#ffffff;fill-opacity:1;fill-rule:nonzero;stroke:none"
       transform="matrix(0.13333333,0,0,-0.13333333,0,328)" />
    <path
       id="path29"
       d="m 4072.66,515.898 c -35.55,0 -55.86,16.442 -64.38,26.372 l 14.14,22.531 C 4035.35,550.23 4050.27,540 4073.16,540 c 22.62,0 33.17,12.809 33.17,24.301 0,14.14 -10.55,20.781 -24.42,26.679 l -35.5,15.11 c -19.34,8.211 -34.26,22.742 -34.26,44.808 0,34.571 34.26,51.481 63.05,51.481 23.98,0 46.56,-8.938 59.49,-24.328 l -14.18,-22.27 c -10.28,12.539 -22.85,22.5 -45.31,22.5 -19.81,0 -28.79,-11.48 -28.79,-21.761 0,-12.809 11.56,-18.981 22.65,-23.59 l 35.43,-15.078 c 20.35,-8.711 36.88,-21.52 36.88,-48.633 -0.04,-18.481 -14.69,-53.321 -68.71,-53.321 z"
       style="fill:#ffffff;fill-opacity:1;fill-rule:nonzero;stroke:none"
       transform="matrix(0.13333333,0,0,-0.13333333,0,328)" />
    <path
       id="path30"
       d="m 4201.56,519.57 h 33.4805 V 698.75 H 4201.56 Z"
       style="fill:#ffffff;fill-opacity:1;fill-rule:nonzero;stroke:none"
       transform="matrix(0.13333333,0,0,-0.13333333,0,328)" />
    <path
       id="path31"
       d="M 4378.83,672.109 V 519.57 h -33.4 v 152.539 h -60.51 v 26.641 h 154.38 v -26.641 z"
       style="fill:#ffffff;fill-opacity:1;fill-rule:nonzero;stroke:none"
       transform="matrix(0.13333333,0,0,-0.13333333,0,328)" />
    <path
       id="path32"
       d="m 4578.79,715.121 c -9.57,0 -17.46,8.199 -17.46,17.219 0,8.91 7.69,17.109 17.46,17.109 9.73,0 17.46,-8.199 17.46,-17.109 0,-9.02 -7.89,-17.219 -17.46,-17.219 z m -25.27,-49.652 -28.05,-78.321 h 56.64 z m -24.42,49.652 c -9.49,0 -17.46,8.199 -17.46,17.219 0,8.91 7.66,17.109 17.46,17.109 9.81,0 17.54,-8.199 17.54,-17.109 0,-9.02 -8.05,-17.219 -17.54,-17.219 z m 77.5,-195.551 -15.7,43.481 h -73.63 l -15.94,-43.481 h -35.24 l 71.49,179.18 h 35.04 l 70.97,-179.18 z"
       style="fill:#ffffff;fill-opacity:1;fill-rule:nonzero;stroke:none"
       transform="matrix(0.13333333,0,0,-0.13333333,0,328)" />
    <path
       id="path33"
       d="M 4764.26,672.109 V 519.57 h -33.4 v 152.539 h -60.43 v 26.641 h 154.34 v -26.641 z"
       style="fill:#ffffff;fill-opacity:1;fill-rule:nonzero;stroke:none"
       transform="matrix(0.13333333,0,0,-0.13333333,0,328)" />
    <path
       id="path34"
       d="m 3065.82,190.352 -6.13,136.128 -45.63,-111.601 h -30.39 l -46.56,111.601 -5.39,-136.128 h -32.7 l 10.55,179.218 h 41.72 l 49.1,-118.832 46.64,118.832 h 41.68 l 10.51,-179.218 z"
       style="fill:#ffffff;fill-opacity:1;fill-rule:nonzero;stroke:none"
       transform="matrix(0.13333333,0,0,-0.13333333,0,328)" />
    <path
       id="path35"
       d="m 3260.35,385.98 c -9.57,0 -17.54,8.2 -17.54,17.11 0,8.941 7.78,17.14 17.54,17.14 9.73,0 17.77,-8.199 17.77,-17.14 0,-8.91 -8.32,-17.11 -17.77,-17.11 z m -49.73,0 c -9.45,0 -17.46,8.2 -17.46,17.11 0,8.941 7.74,17.14 17.46,17.14 9.77,0 17.82,-8.199 17.82,-17.14 0,-8.91 -8.24,-17.11 -17.82,-17.11 z m 27.35,-199.218 c -38.63,0 -74.88,13.75 -74.88,75.269 V 369.57 h 33.39 V 258.91 c 0,-28.441 13.68,-47.66 41.49,-47.66 27.23,0 40.62,17.969 40.62,47.66 v 110.66 h 33.4 V 262.031 c 0,-57.109 -36.95,-75.269 -74.02,-75.269 z"
       style="fill:#ffffff;fill-opacity:1;fill-rule:nonzero;stroke:none"
       transform="matrix(0.13333333,0,0,-0.13333333,0,328)" />
    <path
       id="path36"
       d="m 3488.36,190.352 -75.2,133.597 V 190.352 H 3380.2 V 369.57 h 43.78 l 75.16,-133.711 V 369.57 h 32.85 V 190.352 Z"
       style="fill:#ffffff;fill-opacity:1;fill-rule:nonzero;stroke:none"
       transform="matrix(0.13333333,0,0,-0.13333333,0,328)" />
    <path
       id="path37"
       d="m 3678.44,186.762 c -58.13,0 -85.43,45 -85.43,94.449 0,48.398 33.16,91.949 85.43,91.949 25.78,0 45.82,-8.512 59.49,-22.808 l -13.16,-24.883 c -10.04,11.293 -20,23.082 -45.79,23.082 -30.43,0 -50.93,-29.492 -50.93,-67.34 0,-37.152 22.11,-69.961 51.25,-69.961 21.36,0 35.43,7.23 50.62,23.398 l 12.85,-25.628 c -20.86,-15.93 -35.97,-22.258 -64.33,-22.258 z"
       style="fill:#ffffff;fill-opacity:1;fill-rule:nonzero;stroke:none"
       transform="matrix(0.13333333,0,0,-0.13333333,0,328)" />
    <path
       id="path38"
       d="m 3908.71,190.352 v 81.128 h -80.23 v -81.128 h -33.44 V 369.57 h 33.44 v -73.55 h 80.23 v 73.55 h 33.48 V 190.352 Z"
       style="fill:#ffffff;fill-opacity:1;fill-rule:nonzero;stroke:none"
       transform="matrix(0.13333333,0,0,-0.13333333,0,328)" />
    <path
       id="path39"
       d="M 4013.01,190.352 V 369.57 h 120.66 v -26.172 h -87.22 v -47.066 h 80.27 V 270.66 h -80.27 v -53.75 h 90.54 v -26.558 z"
       style="fill:#ffffff;fill-opacity:1;fill-rule:nonzero;stroke:none"
       transform="matrix(0.13333333,0,0,-0.13333333,0,328)" />
    <path
       id="path40"
       d="m 4302.46,190.352 -75.12,133.597 V 190.352 h -32.96 V 369.57 h 43.71 l 75.19,-133.711 V 369.57 h 32.97 V 190.352 Z"
       style="fill:#ffffff;fill-opacity:1;fill-rule:nonzero;stroke:none"
       transform="matrix(0.13333333,0,0,-0.13333333,0,328)" />
  </g>
</svg>
