<?xml version="1.0" encoding="UTF-8"?>
<svg width="250" height="250" version="1.1" viewBox="0 0 250 250" xmlns="http://www.w3.org/2000/svg">
 <path d="m127.16 7.5128h-4.3071v209.18h4.3071zm6.6703 21.28-0.3567 4.2969c52.258 4.3071 93.2 48.81 93.2 101.31 0 56.053-45.608 101.66-101.67 101.66-56.053 0-101.65-45.608-101.65-101.66 0-52.513 40.932-97.017 93.2-101.31l-0.3596-4.2969c-54.478 4.4811-97.16 50.866-97.16 105.61 0 58.427 47.541 105.97 105.97 105.97 58.437 0 105.97-47.541 105.97-105.97 0-54.734-42.671-101.12-97.139-105.61" fill="#0075bb"/>
</svg>